<svg width="1600" height="900" viewBox="0 0 1600 900" fill="none" xmlns="http://www.w3.org/2000/svg">
  <defs>
    <linearGradient id="bg" x1="0" y1="0" x2="1" y2="1">
      <stop offset="0" stop-color="#0D1628"/>
      <stop offset="0.55" stop-color="#2C1B14"/>
      <stop offset="1" stop-color="#2B150D"/>
    </linearGradient>
    <linearGradient id="leftOverlay" x1="0" y1="0" x2="1" y2="0">
      <stop offset="0" stop-color="#09162F" stop-opacity="0.95"/>
      <stop offset="0.65" stop-color="#0D1E3A" stop-opacity="0.56"/>
      <stop offset="1" stop-color="#0D1E3A" stop-opacity="0"/>
    </linearGradient>
    <radialGradient id="lampGlow" cx="0" cy="0" r="1" gradientUnits="userSpaceOnUse" gradientTransform="translate(1260 250) rotate(90) scale(250 330)">
      <stop offset="0" stop-color="#FFD9A3" stop-opacity="0.72"/>
      <stop offset="1" stop-color="#FFD9A3" stop-opacity="0"/>
    </radialGradient>
    <filter id="blur" x="-20" y="-20" width="1640" height="940" filterUnits="userSpaceOnUse" color-interpolation-filters="sRGB">
      <feGaussianBlur stdDeviation="2"/>
    </filter>
  </defs>

  <rect width="1600" height="900" fill="url(#bg)"/>

  <g opacity="0.88">
    <rect x="520" y="70" width="960" height="630" fill="#25140F"/>
    <rect x="560" y="105" width="50" height="560" fill="#5B2A17"/>
    <rect x="630" y="105" width="50" height="560" fill="#66311B"/>
    <rect x="700" y="105" width="50" height="560" fill="#4E2312"/>
    <rect x="770" y="105" width="50" height="560" fill="#6F371F"/>
    <rect x="840" y="105" width="50" height="560" fill="#5C2A16"/>
    <rect x="910" y="105" width="50" height="560" fill="#6D341D"/>
    <rect x="980" y="105" width="50" height="560" fill="#4A200F"/>
    <rect x="1050" y="105" width="50" height="560" fill="#613019"/>
    <rect x="1120" y="105" width="50" height="560" fill="#6C331B"/>
    <rect x="1190" y="105" width="50" height="560" fill="#542613"/>
    <rect x="1260" y="105" width="50" height="560" fill="#6F371F"/>
    <rect x="1330" y="105" width="50" height="560" fill="#4F230F"/>
    <rect x="1400" y="105" width="50" height="560" fill="#6B321A"/>
  </g>

  <rect x="495" y="688" width="1025" height="150" rx="12" fill="#3D2014"/>
  <ellipse cx="1180" cy="703" rx="205" ry="26" fill="#2A170E"/>

  <g filter="url(#blur)">
    <path d="M150 760C150 603 191 460 264 389C336 319 442 290 606 298C653 301 674 343 672 408L646 757L150 760Z" fill="#4F2A1B"/>
    <path d="M95 790C98 701 124 610 165 560C207 508 276 483 391 482C504 480 566 523 602 611C642 711 615 790 496 790H95Z" fill="#693A27"/>
  </g>

  <rect x="1216" y="400" width="24" height="288" rx="12" fill="#AF7A48"/>
  <ellipse cx="1228" cy="360" rx="75" ry="88" fill="#EADAB7"/>
  <ellipse cx="1228" cy="372" rx="52" ry="61" fill="#D6C39E"/>
  <ellipse cx="1228" cy="250" rx="300" ry="220" fill="url(#lampGlow)"/>

  <ellipse cx="1080" cy="680" rx="84" ry="34" fill="#E9E3D8" opacity="0.9"/>
  <ellipse cx="1080" cy="682" rx="52" ry="22" fill="#DDD4C5"/>

  <rect width="1600" height="900" fill="url(#leftOverlay)"/>
</svg>
